<?xml version="1.0" standalone="no"?>
<!DOCTYPE svg PUBLIC "-//W3C//DTD SVG 1.1//EN" "http://www.w3.org/Graphics/SVG/1.1/DTD/svg11.dtd">
<svg width="11" height="12" viewBox="-6 -6 11 12" xmlns="http://www.w3.org/2000/svg" version="1.1">
<title>OpenSCAD Model</title>
<path d="
M -0.0542603,5.08925 L -0.0276642,5.06618 L 0.0040741,5.06012 L 0.0348206,5.07011 L 0.0385284,5.07266 L 1.70213,4.77531
 L 1.73062,4.75484 L 1.76279,4.75168 L 1.78636,4.76025 L 2.67513,4.60139 L 2.85327,4.49603 L 3.12994,4.30801
 L 3.39427,4.10298 L 3.6452,3.88174 L 3.88174,3.6452 L 4.10298,3.39427 L 4.30801,3.12994 L 4.49603,2.85327
 L 4.66632,2.56534 L 4.81819,2.26727 L 4.95105,1.96025 L 4.96445,1.92303 L 4.96445,-1.92303 L 4.95105,-1.96025
 L 4.81819,-2.26727 L 4.66632,-2.56534 L 4.49603,-2.85327 L 4.30801,-3.12994 L 4.10298,-3.39427 L 3.88174,-3.6452
 L 3.6452,-3.88174 L 3.39427,-4.10298 L 3.12994,-4.30801 L 2.85327,-4.49603 L 2.79868,-4.52832 L -1.19925,-5.18564
 L -1.32426,-5.1577 L -1.64551,-5.06436 L -1.96025,-4.95105 L -2.26727,-4.81819 L -2.56534,-4.66632 L -2.85327,-4.49603
 L -3.12994,-4.30801 L -3.39427,-4.10298 L -3.6452,-3.88174 L -3.88174,-3.6452 L -4.10298,-3.39427 L -4.30801,-3.12994
 L -4.49603,-2.85327 L -4.66632,-2.56534 L -4.81819,-2.26727 L -4.95105,-1.96025 L -5.06436,-1.64551 L -5.1577,-1.32426
 L -5.23067,-0.997803 L -5.283,-0.667389 L -5.31448,-0.334351 L -5.325,-0 L -5.31448,0.334351 L -5.283,0.667389
 L -5.23067,0.997803 L -5.1577,1.32426 L -5.06436,1.64551 L -4.95105,1.96025 L -4.81819,2.26727 L -4.66632,2.56534
 L -4.49603,2.85327 L -4.30801,3.12994 L -4.10298,3.39427 L -3.88174,3.6452 L -3.6452,3.88174 L -3.39427,4.10298
 L -3.12994,4.30801 L -2.85327,4.49603 L -2.56534,4.66632 L -2.26727,4.81819 L -1.96025,4.95105 L -1.64551,5.06436
 L -1.32426,5.1577 L -0.997803,5.23067 L -0.917007,5.24347 z
M -1.73062,-4.75484 L -1.76279,-4.75168 L -1.79251,-4.76442 L -1.81241,-4.7899 L -1.81758,-4.82181 L -1.80673,-4.85226
 L -1.78256,-4.87373 L -1.75104,-4.88089 L -1.71996,-4.87198 L -1.69701,-4.8492 L -1.68788,-4.81819 L -1.69482,-4.78661
 L -1.71613,-4.76228 z
M -2.24149,-3.49095 L -2.29245,-3.49309 L -2.34276,-3.50159 L -2.3916,-3.51634 L -2.4382,-3.53708 L -2.48184,-3.56352
 L -2.52182,-3.5952 L -2.55753,-3.63165 L -2.58836,-3.67229 L -2.61388,-3.71648 L -2.63365,-3.7635 L -2.64737,-3.81264
 L -2.65482,-3.86311 L -2.65588,-3.91412 L -2.65056,-3.96486 L -2.6389,-4.01453 L -2.62112,-4.06235 L -2.59749,-4.10756
 L -2.56837,-4.14944 L -2.53423,-4.18736 L -2.49561,-4.2207 L -2.45311,-4.24893 L -2.40742,-4.27161 L -2.35924,-4.28839
 L -2.30934,-4.299 L -2.2585,-4.30327 L -2.20753,-4.30113 L -2.15723,-4.29262 L -2.10838,-4.27788 L -2.06178,-4.25713
 L -2.01814,-4.2307 L -1.97816,-4.19901 L -1.94246,-4.16255 L -1.91162,-4.12192 L -1.88611,-4.07774 L -1.86633,-4.03072
 L -1.85262,-3.98157 L -1.84517,-3.93111 L -1.8441,-3.8801 L -1.84943,-3.82936 L -1.86108,-3.77969 L -1.87886,-3.73187
 L -1.9025,-3.68666 L -1.93161,-3.64476 L -1.96576,-3.60686 L -2.00438,-3.57352 L -2.04686,-3.54529 L -2.09256,-3.5226
 L -2.14075,-3.50583 L -2.19064,-3.49521 z
M -3.61488,-2.37244 L -3.07935,-2.94011 L -0.851501,-4.20398 L 3.35783,-3.57205 L 4.0219,-2.80087 L 3.18646,-2.79016
 L 3.05792,-2.36172 z
M 3.31778,-3.86537 L 3.28568,-3.86154 L 3.25571,-3.87366 L 3.23528,-3.89871 L 3.22943,-3.93051 L 3.23964,-3.96118
 L 3.26337,-3.98315 L 3.29474,-3.99097 L 3.32599,-3.98271 L 3.3494,-3.96042 L 3.35918,-3.9296 L 3.35291,-3.89789
 L 3.33212,-3.87312 z
M -3.26993,-3.86571 L -3.30197,-3.86143 L -3.33212,-3.87312 L -3.35291,-3.89789 L -3.35918,-3.9296 L -3.3494,-3.96042
 L -3.32599,-3.98271 L -3.29474,-3.99097 L -3.26337,-3.98315 L -3.23964,-3.96118 L -3.22943,-3.93051 L -3.23528,-3.89871
 L -3.25571,-3.87366 z
M 4.46356,-2.50258 L 4.43158,-2.49785 L 4.40128,-2.50912 L 4.38016,-2.53358 L 4.37343,-2.56522 L 4.38277,-2.59616
 L 4.40587,-2.61879 L 4.43701,-2.62747 L 4.46849,-2.6201 L 4.49251,-2.59846 L 4.50314,-2.56793 L 4.49776,-2.53606
 L 4.47768,-2.51071 z
M -4.41571,-2.50157 L -4.44786,-2.49818 L -4.47768,-2.51071 L -4.49776,-2.53606 L -4.50314,-2.56793 L -4.49251,-2.59846
 L -4.46849,-2.6201 L -4.43701,-2.62747 L -4.40587,-2.61879 L -4.38277,-2.59616 L -4.37343,-2.56522 L -4.38016,-2.53358
 L -4.40128,-2.50912 z
M -3.11148,-0.915771 L -2.37244,-1.49416 L 2.19035,-1.52628 L -3.12219,1.74049 z
M 2.86513,-1.03358 L 2.86513,1.47273 L 2.27605,2.1368 L -2.56523,2.24391 z
M -5.02237,-0.829849 L -5.05438,-0.825348 L -5.08459,-0.836823 L -5.10556,-0.86145 L -5.11206,-0.893112 L -5.10249,-0.923996
 L -5.07924,-0.946457 L -5.04803,-0.954926 L -5.01662,-0.947327 L -4.99274,-0.925537 L -4.98233,-0.894928 L -4.98793,-0.863083
 L -5.00819,-0.837891 z
M 4.5,0.40625 L 4.44908,0.403046 L 4.39896,0.393478 L 4.35045,0.377716 L 4.30428,0.355988 L 4.2612,0.328659
 L 4.22189,0.296143 L 4.18697,0.258942 L 4.15698,0.217667 L 4.1324,0.172958 L 4.11363,0.125534 L 4.10094,0.0761108
 L 4.09454,0.0254974 L 4.09454,-0.0254974 L 4.10094,-0.0761108 L 4.11363,-0.125534 L 4.1324,-0.172958 L 4.15698,-0.217667
 L 4.18697,-0.258942 L 4.22189,-0.296143 L 4.2612,-0.328659 L 4.30428,-0.355988 L 4.35045,-0.377716 L 4.39896,-0.393478
 L 4.44908,-0.403046 L 4.5,-0.40625 L 4.5509,-0.403046 L 4.60103,-0.393478 L 4.64954,-0.377716 L 4.69571,-0.355988
 L 4.73878,-0.328659 L 4.77809,-0.296143 L 4.81302,-0.258942 L 4.843,-0.217667 L 4.86758,-0.172958 L 4.88635,-0.125534
 L 4.89905,-0.0761108 L 4.90544,-0.0254974 L 4.90544,0.0254974 L 4.89905,0.0761108 L 4.88635,0.125534 L 4.86758,0.172958
 L 4.843,0.217667 L 4.81302,0.258942 L 4.77809,0.296143 L 4.73878,0.328659 L 4.69571,0.355988 L 4.64954,0.377716
 L 4.60103,0.393478 L 4.5509,0.403046 z
M -5.02405,0.950699 L -5.05618,0.9543 L -5.08607,0.941986 L -5.10632,0.916794 L -5.11194,0.884949 L -5.10152,0.854355
 L -5.07765,0.83255 L -5.04622,0.824951 L -5.01503,0.83342 L -4.99178,0.855881 L -4.98221,0.886765 L -4.98871,0.918427
 L -5.00966,0.943054 z
M -4.41318,2.62241 L -4.44516,2.62714 L -4.47546,2.61586 L -4.4966,2.5914 L -4.50331,2.55977 L -4.49397,2.52882
 L -4.47087,2.5062 L -4.43973,2.49751 L -4.40826,2.50488 L -4.38423,2.52652 L -4.3736,2.55705 L -4.379,2.58893
 L -4.39908,2.61427 z
M 4.46103,2.62341 L 4.42888,2.6268 L 4.39908,2.61427 L 4.379,2.58893 L 4.3736,2.55705 L 4.38423,2.52652
 L 4.40826,2.50488 L 4.43973,2.49751 L 4.47087,2.5062 L 4.49397,2.52882 L 4.50331,2.55977 L 4.4966,2.5914
 L 4.47546,2.61586 z
M -3.12219,3.04721 L 3.86124,2.91869 L 3.51849,3.41139 L -0.423065,4.19327 z
M -2.2585,4.30327 L -2.30934,4.299 L -2.35924,4.28839 L -2.40742,4.27161 L -2.45312,4.24893 L -2.49561,4.2207
 L -2.53423,4.18736 L -2.56837,4.14944 L -2.59749,4.10756 L -2.62112,4.06235 L -2.6389,4.01453 L -2.65056,3.96486
 L -2.65588,3.91412 L -2.65482,3.86311 L -2.64737,3.81264 L -2.63365,3.7635 L -2.61388,3.71648 L -2.58836,3.67229
 L -2.55753,3.63165 L -2.52182,3.5952 L -2.48184,3.56352 L -2.4382,3.53708 L -2.3916,3.51634 L -2.34276,3.50159
 L -2.29245,3.49309 L -2.24149,3.49095 L -2.19064,3.49521 L -2.14075,3.50583 L -2.09256,3.5226 L -2.04688,3.54529
 L -2.00438,3.57352 L -1.96576,3.60686 L -1.93161,3.64476 L -1.9025,3.68666 L -1.87886,3.73187 L -1.86108,3.77969
 L -1.84943,3.82936 L -1.8441,3.8801 L -1.84517,3.93111 L -1.85262,3.98157 L -1.86633,4.03072 L -1.88611,4.07774
 L -1.91162,4.12192 L -1.94246,4.16255 L -1.97816,4.19901 L -2.01814,4.2307 L -2.06178,4.25713 L -2.10838,4.27788
 L -2.15723,4.29262 L -2.20753,4.30113 z
M -3.27077,3.98657 L -3.30287,3.9904 L -3.33286,3.97829 L -3.35329,3.95323 L -3.35912,3.92143 L -3.34892,3.89076
 L -3.3252,3.86879 L -3.29382,3.86098 L -3.26257,3.86923 L -3.23915,3.89153 L -3.22939,3.92235 L -3.23566,3.95406
 L -3.25644,3.97882 z
M 3.31863,3.98624 L 3.28658,3.99051 L 3.25644,3.97882 L 3.23566,3.95406 L 3.22939,3.92235 L 3.23915,3.89153
 L 3.26257,3.86923 L 3.29382,3.86098 L 3.3252,3.86879 L 3.34892,3.89076 L 3.35912,3.92143 L 3.35329,3.95323
 L 3.33286,3.97829 z
M -1.72723,4.87566 L -1.75919,4.8806 L -1.78957,4.86955 L -1.81087,4.84523 L -1.81781,4.81364 L -1.80869,4.78264
 L -1.78574,4.75986 L -1.75465,4.75095 L -1.72313,4.7581 L -1.69896,4.77957 L -1.68811,4.81003 L -1.69328,4.84193
 L -1.71318,4.86742 z
" stroke="black" fill="lightgray" stroke-width="0.5"/></svg>
