  0
SECTION
  2
BLOCKS
  0
ENDSEC
  0
SECTION
  2
ENTITIES
  0
LINE
  8
0
 10
-0.0542603
 20
-5.08925
 11
-0.0276642
 21
-5.06618
  0
LINE
  8
0
 10
-0.0276642
 20
-5.06618
 11
0.0040741
 21
-5.06012
  0
LINE
  8
0
 10
0.0040741
 20
-5.06012
 11
0.0348206
 21
-5.07011
  0
LINE
  8
0
 10
0.0348206
 20
-5.07011
 11
0.0385284
 21
-5.07266
  0
LINE
  8
0
 10
0.0385284
 20
-5.07266
 11
1.70213
 21
-4.77531
  0
LINE
  8
0
 10
1.70213
 20
-4.77531
 11
1.73062
 21
-4.75484
  0
LINE
  8
0
 10
1.73062
 20
-4.75484
 11
1.76279
 21
-4.75168
  0
LINE
  8
0
 10
1.76279
 20
-4.75168
 11
1.78636
 21
-4.76025
  0
LINE
  8
0
 10
1.78636
 20
-4.76025
 11
2.67513
 21
-4.60139
  0
LINE
  8
0
 10
2.67513
 20
-4.60139
 11
2.85327
 21
-4.49603
  0
LINE
  8
0
 10
2.85327
 20
-4.49603
 11
3.12994
 21
-4.30801
  0
LINE
  8
0
 10
3.12994
 20
-4.30801
 11
3.39427
 21
-4.10298
  0
LINE
  8
0
 10
3.39427
 20
-4.10298
 11
3.6452
 21
-3.88174
  0
LINE
  8
0
 10
3.6452
 20
-3.88174
 11
3.88174
 21
-3.6452
  0
LINE
  8
0
 10
3.88174
 20
-3.6452
 11
4.10298
 21
-3.39427
  0
LINE
  8
0
 10
4.10298
 20
-3.39427
 11
4.30801
 21
-3.12994
  0
LINE
  8
0
 10
4.30801
 20
-3.12994
 11
4.49603
 21
-2.85327
  0
LINE
  8
0
 10
4.49603
 20
-2.85327
 11
4.66632
 21
-2.56534
  0
LINE
  8
0
 10
4.66632
 20
-2.56534
 11
4.81819
 21
-2.26727
  0
LINE
  8
0
 10
4.81819
 20
-2.26727
 11
4.95105
 21
-1.96025
  0
LINE
  8
0
 10
4.95105
 20
-1.96025
 11
4.96445
 21
-1.92303
  0
LINE
  8
0
 10
4.96445
 20
-1.92303
 11
4.96445
 21
1.92303
  0
LINE
  8
0
 10
4.96445
 20
1.92303
 11
4.95105
 21
1.96025
  0
LINE
  8
0
 10
4.95105
 20
1.96025
 11
4.81819
 21
2.26727
  0
LINE
  8
0
 10
4.81819
 20
2.26727
 11
4.66632
 21
2.56534
  0
LINE
  8
0
 10
4.66632
 20
2.56534
 11
4.49603
 21
2.85327
  0
LINE
  8
0
 10
4.49603
 20
2.85327
 11
4.30801
 21
3.12994
  0
LINE
  8
0
 10
4.30801
 20
3.12994
 11
4.10298
 21
3.39427
  0
LINE
  8
0
 10
4.10298
 20
3.39427
 11
3.88174
 21
3.6452
  0
LINE
  8
0
 10
3.88174
 20
3.6452
 11
3.6452
 21
3.88174
  0
LINE
  8
0
 10
3.6452
 20
3.88174
 11
3.39427
 21
4.10298
  0
LINE
  8
0
 10
3.39427
 20
4.10298
 11
3.12994
 21
4.30801
  0
LINE
  8
0
 10
3.12994
 20
4.30801
 11
2.85327
 21
4.49603
  0
LINE
  8
0
 10
2.85327
 20
4.49603
 11
2.79868
 21
4.52832
  0
LINE
  8
0
 10
2.79868
 20
4.52832
 11
-1.19925
 21
5.18564
  0
LINE
  8
0
 10
-1.19925
 20
5.18564
 11
-1.32426
 21
5.1577
  0
LINE
  8
0
 10
-1.32426
 20
5.1577
 11
-1.64551
 21
5.06436
  0
LINE
  8
0
 10
-1.64551
 20
5.06436
 11
-1.96025
 21
4.95105
  0
LINE
  8
0
 10
-1.96025
 20
4.95105
 11
-2.26727
 21
4.81819
  0
LINE
  8
0
 10
-2.26727
 20
4.81819
 11
-2.56534
 21
4.66632
  0
LINE
  8
0
 10
-2.56534
 20
4.66632
 11
-2.85327
 21
4.49603
  0
LINE
  8
0
 10
-2.85327
 20
4.49603
 11
-3.12994
 21
4.30801
  0
LINE
  8
0
 10
-3.12994
 20
4.30801
 11
-3.39427
 21
4.10298
  0
LINE
  8
0
 10
-3.39427
 20
4.10298
 11
-3.6452
 21
3.88174
  0
LINE
  8
0
 10
-3.6452
 20
3.88174
 11
-3.88174
 21
3.6452
  0
LINE
  8
0
 10
-3.88174
 20
3.6452
 11
-4.10298
 21
3.39427
  0
LINE
  8
0
 10
-4.10298
 20
3.39427
 11
-4.30801
 21
3.12994
  0
LINE
  8
0
 10
-4.30801
 20
3.12994
 11
-4.49603
 21
2.85327
  0
LINE
  8
0
 10
-4.49603
 20
2.85327
 11
-4.66632
 21
2.56534
  0
LINE
  8
0
 10
-4.66632
 20
2.56534
 11
-4.81819
 21
2.26727
  0
LINE
  8
0
 10
-4.81819
 20
2.26727
 11
-4.95105
 21
1.96025
  0
LINE
  8
0
 10
-4.95105
 20
1.96025
 11
-5.06436
 21
1.64551
  0
LINE
  8
0
 10
-5.06436
 20
1.64551
 11
-5.1577
 21
1.32426
  0
LINE
  8
0
 10
-5.1577
 20
1.32426
 11
-5.23067
 21
0.997803
  0
LINE
  8
0
 10
-5.23067
 20
0.997803
 11
-5.283
 21
0.667389
  0
LINE
  8
0
 10
-5.283
 20
0.667389
 11
-5.31448
 21
0.334351
  0
LINE
  8
0
 10
-5.31448
 20
0.334351
 11
-5.325
 21
0
  0
LINE
  8
0
 10
-5.325
 20
0
 11
-5.31448
 21
-0.334351
  0
LINE
  8
0
 10
-5.31448
 20
-0.334351
 11
-5.283
 21
-0.667389
  0
LINE
  8
0
 10
-5.283
 20
-0.667389
 11
-5.23067
 21
-0.997803
  0
LINE
  8
0
 10
-5.23067
 20
-0.997803
 11
-5.1577
 21
-1.32426
  0
LINE
  8
0
 10
-5.1577
 20
-1.32426
 11
-5.06436
 21
-1.64551
  0
LINE
  8
0
 10
-5.06436
 20
-1.64551
 11
-4.95105
 21
-1.96025
  0
LINE
  8
0
 10
-4.95105
 20
-1.96025
 11
-4.81819
 21
-2.26727
  0
LINE
  8
0
 10
-4.81819
 20
-2.26727
 11
-4.66632
 21
-2.56534
  0
LINE
  8
0
 10
-4.66632
 20
-2.56534
 11
-4.49603
 21
-2.85327
  0
LINE
  8
0
 10
-4.49603
 20
-2.85327
 11
-4.30801
 21
-3.12994
  0
LINE
  8
0
 10
-4.30801
 20
-3.12994
 11
-4.10298
 21
-3.39427
  0
LINE
  8
0
 10
-4.10298
 20
-3.39427
 11
-3.88174
 21
-3.6452
  0
LINE
  8
0
 10
-3.88174
 20
-3.6452
 11
-3.6452
 21
-3.88174
  0
LINE
  8
0
 10
-3.6452
 20
-3.88174
 11
-3.39427
 21
-4.10298
  0
LINE
  8
0
 10
-3.39427
 20
-4.10298
 11
-3.12994
 21
-4.30801
  0
LINE
  8
0
 10
-3.12994
 20
-4.30801
 11
-2.85327
 21
-4.49603
  0
LINE
  8
0
 10
-2.85327
 20
-4.49603
 11
-2.56534
 21
-4.66632
  0
LINE
  8
0
 10
-2.56534
 20
-4.66632
 11
-2.26727
 21
-4.81819
  0
LINE
  8
0
 10
-2.26727
 20
-4.81819
 11
-1.96025
 21
-4.95105
  0
LINE
  8
0
 10
-1.96025
 20
-4.95105
 11
-1.64551
 21
-5.06436
  0
LINE
  8
0
 10
-1.64551
 20
-5.06436
 11
-1.32426
 21
-5.1577
  0
LINE
  8
0
 10
-1.32426
 20
-5.1577
 11
-0.997803
 21
-5.23067
  0
LINE
  8
0
 10
-0.997803
 20
-5.23067
 11
-0.917007
 21
-5.24347
  0
LINE
  8
0
 10
-0.917007
 20
-5.24347
 11
-0.0542603
 21
-5.08925
  0
LINE
  8
0
 10
-1.73062
 20
4.75484
 11
-1.76279
 21
4.75168
  0
LINE
  8
0
 10
-1.76279
 20
4.75168
 11
-1.79251
 21
4.76442
  0
LINE
  8
0
 10
-1.79251
 20
4.76442
 11
-1.81241
 21
4.7899
  0
LINE
  8
0
 10
-1.81241
 20
4.7899
 11
-1.81758
 21
4.82181
  0
LINE
  8
0
 10
-1.81758
 20
4.82181
 11
-1.80673
 21
4.85226
  0
LINE
  8
0
 10
-1.80673
 20
4.85226
 11
-1.78256
 21
4.87373
  0
LINE
  8
0
 10
-1.78256
 20
4.87373
 11
-1.75104
 21
4.88089
  0
LINE
  8
0
 10
-1.75104
 20
4.88089
 11
-1.71996
 21
4.87198
  0
LINE
  8
0
 10
-1.71996
 20
4.87198
 11
-1.69701
 21
4.8492
  0
LINE
  8
0
 10
-1.69701
 20
4.8492
 11
-1.68788
 21
4.81819
  0
LINE
  8
0
 10
-1.68788
 20
4.81819
 11
-1.69482
 21
4.78661
  0
LINE
  8
0
 10
-1.69482
 20
4.78661
 11
-1.71613
 21
4.76228
  0
LINE
  8
0
 10
-1.71613
 20
4.76228
 11
-1.73062
 21
4.75484
  0
LINE
  8
0
 10
-2.24149
 20
3.49095
 11
-2.29245
 21
3.49309
  0
LINE
  8
0
 10
-2.29245
 20
3.49309
 11
-2.34276
 21
3.50159
  0
LINE
  8
0
 10
-2.34276
 20
3.50159
 11
-2.3916
 21
3.51634
  0
LINE
  8
0
 10
-2.3916
 20
3.51634
 11
-2.4382
 21
3.53708
  0
LINE
  8
0
 10
-2.4382
 20
3.53708
 11
-2.48184
 21
3.56352
  0
LINE
  8
0
 10
-2.48184
 20
3.56352
 11
-2.52182
 21
3.5952
  0
LINE
  8
0
 10
-2.52182
 20
3.5952
 11
-2.55753
 21
3.63165
  0
LINE
  8
0
 10
-2.55753
 20
3.63165
 11
-2.58836
 21
3.67229
  0
LINE
  8
0
 10
-2.58836
 20
3.67229
 11
-2.61388
 21
3.71648
  0
LINE
  8
0
 10
-2.61388
 20
3.71648
 11
-2.63365
 21
3.7635
  0
LINE
  8
0
 10
-2.63365
 20
3.7635
 11
-2.64737
 21
3.81264
  0
LINE
  8
0
 10
-2.64737
 20
3.81264
 11
-2.65482
 21
3.86311
  0
LINE
  8
0
 10
-2.65482
 20
3.86311
 11
-2.65588
 21
3.91412
  0
LINE
  8
0
 10
-2.65588
 20
3.91412
 11
-2.65056
 21
3.96486
  0
LINE
  8
0
 10
-2.65056
 20
3.96486
 11
-2.6389
 21
4.01453
  0
LINE
  8
0
 10
-2.6389
 20
4.01453
 11
-2.62112
 21
4.06235
  0
LINE
  8
0
 10
-2.62112
 20
4.06235
 11
-2.59749
 21
4.10756
  0
LINE
  8
0
 10
-2.59749
 20
4.10756
 11
-2.56837
 21
4.14944
  0
LINE
  8
0
 10
-2.56837
 20
4.14944
 11
-2.53423
 21
4.18736
  0
LINE
  8
0
 10
-2.53423
 20
4.18736
 11
-2.49561
 21
4.2207
  0
LINE
  8
0
 10
-2.49561
 20
4.2207
 11
-2.45311
 21
4.24893
  0
LINE
  8
0
 10
-2.45311
 20
4.24893
 11
-2.40742
 21
4.27161
  0
LINE
  8
0
 10
-2.40742
 20
4.27161
 11
-2.35924
 21
4.28839
  0
LINE
  8
0
 10
-2.35924
 20
4.28839
 11
-2.30934
 21
4.299
  0
LINE
  8
0
 10
-2.30934
 20
4.299
 11
-2.2585
 21
4.30327
  0
LINE
  8
0
 10
-2.2585
 20
4.30327
 11
-2.20753
 21
4.30113
  0
LINE
  8
0
 10
-2.20753
 20
4.30113
 11
-2.15723
 21
4.29262
  0
LINE
  8
0
 10
-2.15723
 20
4.29262
 11
-2.10838
 21
4.27788
  0
LINE
  8
0
 10
-2.10838
 20
4.27788
 11
-2.06178
 21
4.25713
  0
LINE
  8
0
 10
-2.06178
 20
4.25713
 11
-2.01814
 21
4.2307
  0
LINE
  8
0
 10
-2.01814
 20
4.2307
 11
-1.97816
 21
4.19901
  0
LINE
  8
0
 10
-1.97816
 20
4.19901
 11
-1.94246
 21
4.16255
  0
LINE
  8
0
 10
-1.94246
 20
4.16255
 11
-1.91162
 21
4.12192
  0
LINE
  8
0
 10
-1.91162
 20
4.12192
 11
-1.88611
 21
4.07774
  0
LINE
  8
0
 10
-1.88611
 20
4.07774
 11
-1.86633
 21
4.03072
  0
LINE
  8
0
 10
-1.86633
 20
4.03072
 11
-1.85262
 21
3.98157
  0
LINE
  8
0
 10
-1.85262
 20
3.98157
 11
-1.84517
 21
3.93111
  0
LINE
  8
0
 10
-1.84517
 20
3.93111
 11
-1.8441
 21
3.8801
  0
LINE
  8
0
 10
-1.8441
 20
3.8801
 11
-1.84943
 21
3.82936
  0
LINE
  8
0
 10
-1.84943
 20
3.82936
 11
-1.86108
 21
3.77969
  0
LINE
  8
0
 10
-1.86108
 20
3.77969
 11
-1.87886
 21
3.73187
  0
LINE
  8
0
 10
-1.87886
 20
3.73187
 11
-1.9025
 21
3.68666
  0
LINE
  8
0
 10
-1.9025
 20
3.68666
 11
-1.93161
 21
3.64476
  0
LINE
  8
0
 10
-1.93161
 20
3.64476
 11
-1.96576
 21
3.60686
  0
LINE
  8
0
 10
-1.96576
 20
3.60686
 11
-2.00438
 21
3.57352
  0
LINE
  8
0
 10
-2.00438
 20
3.57352
 11
-2.04686
 21
3.54529
  0
LINE
  8
0
 10
-2.04686
 20
3.54529
 11
-2.09256
 21
3.5226
  0
LINE
  8
0
 10
-2.09256
 20
3.5226
 11
-2.14075
 21
3.50583
  0
LINE
  8
0
 10
-2.14075
 20
3.50583
 11
-2.19064
 21
3.49521
  0
LINE
  8
0
 10
-2.19064
 20
3.49521
 11
-2.24149
 21
3.49095
  0
LINE
  8
0
 10
-3.61488
 20
2.37244
 11
-3.07935
 21
2.94011
  0
LINE
  8
0
 10
-3.07935
 20
2.94011
 11
-0.851501
 21
4.20398
  0
LINE
  8
0
 10
-0.851501
 20
4.20398
 11
3.35783
 21
3.57205
  0
LINE
  8
0
 10
3.35783
 20
3.57205
 11
4.0219
 21
2.80087
  0
LINE
  8
0
 10
4.0219
 20
2.80087
 11
3.18646
 21
2.79016
  0
LINE
  8
0
 10
3.18646
 20
2.79016
 11
3.05792
 21
2.36172
  0
LINE
  8
0
 10
3.05792
 20
2.36172
 11
-3.61488
 21
2.37244
  0
LINE
  8
0
 10
3.31778
 20
3.86537
 11
3.28568
 21
3.86154
  0
LINE
  8
0
 10
3.28568
 20
3.86154
 11
3.25571
 21
3.87366
  0
LINE
  8
0
 10
3.25571
 20
3.87366
 11
3.23528
 21
3.89871
  0
LINE
  8
0
 10
3.23528
 20
3.89871
 11
3.22943
 21
3.93051
  0
LINE
  8
0
 10
3.22943
 20
3.93051
 11
3.23964
 21
3.96118
  0
LINE
  8
0
 10
3.23964
 20
3.96118
 11
3.26337
 21
3.98315
  0
LINE
  8
0
 10
3.26337
 20
3.98315
 11
3.29474
 21
3.99097
  0
LINE
  8
0
 10
3.29474
 20
3.99097
 11
3.32599
 21
3.98271
  0
LINE
  8
0
 10
3.32599
 20
3.98271
 11
3.3494
 21
3.96042
  0
LINE
  8
0
 10
3.3494
 20
3.96042
 11
3.35918
 21
3.9296
  0
LINE
  8
0
 10
3.35918
 20
3.9296
 11
3.35291
 21
3.89789
  0
LINE
  8
0
 10
3.35291
 20
3.89789
 11
3.33212
 21
3.87312
  0
LINE
  8
0
 10
3.33212
 20
3.87312
 11
3.31778
 21
3.86537
  0
LINE
  8
0
 10
-3.26993
 20
3.86571
 11
-3.30197
 21
3.86143
  0
LINE
  8
0
 10
-3.30197
 20
3.86143
 11
-3.33212
 21
3.87312
  0
LINE
  8
0
 10
-3.33212
 20
3.87312
 11
-3.35291
 21
3.89789
  0
LINE
  8
0
 10
-3.35291
 20
3.89789
 11
-3.35918
 21
3.9296
  0
LINE
  8
0
 10
-3.35918
 20
3.9296
 11
-3.3494
 21
3.96042
  0
LINE
  8
0
 10
-3.3494
 20
3.96042
 11
-3.32599
 21
3.98271
  0
LINE
  8
0
 10
-3.32599
 20
3.98271
 11
-3.29474
 21
3.99097
  0
LINE
  8
0
 10
-3.29474
 20
3.99097
 11
-3.26337
 21
3.98315
  0
LINE
  8
0
 10
-3.26337
 20
3.98315
 11
-3.23964
 21
3.96118
  0
LINE
  8
0
 10
-3.23964
 20
3.96118
 11
-3.22943
 21
3.93051
  0
LINE
  8
0
 10
-3.22943
 20
3.93051
 11
-3.23528
 21
3.89871
  0
LINE
  8
0
 10
-3.23528
 20
3.89871
 11
-3.25571
 21
3.87366
  0
LINE
  8
0
 10
-3.25571
 20
3.87366
 11
-3.26993
 21
3.86571
  0
LINE
  8
0
 10
4.46356
 20
2.50258
 11
4.43158
 21
2.49785
  0
LINE
  8
0
 10
4.43158
 20
2.49785
 11
4.40128
 21
2.50912
  0
LINE
  8
0
 10
4.40128
 20
2.50912
 11
4.38016
 21
2.53358
  0
LINE
  8
0
 10
4.38016
 20
2.53358
 11
4.37343
 21
2.56522
  0
LINE
  8
0
 10
4.37343
 20
2.56522
 11
4.38277
 21
2.59616
  0
LINE
  8
0
 10
4.38277
 20
2.59616
 11
4.40587
 21
2.61879
  0
LINE
  8
0
 10
4.40587
 20
2.61879
 11
4.43701
 21
2.62747
  0
LINE
  8
0
 10
4.43701
 20
2.62747
 11
4.46849
 21
2.6201
  0
LINE
  8
0
 10
4.46849
 20
2.6201
 11
4.49251
 21
2.59846
  0
LINE
  8
0
 10
4.49251
 20
2.59846
 11
4.50314
 21
2.56793
  0
LINE
  8
0
 10
4.50314
 20
2.56793
 11
4.49776
 21
2.53606
  0
LINE
  8
0
 10
4.49776
 20
2.53606
 11
4.47768
 21
2.51071
  0
LINE
  8
0
 10
4.47768
 20
2.51071
 11
4.46356
 21
2.50258
  0
LINE
  8
0
 10
-4.41571
 20
2.50157
 11
-4.44786
 21
2.49818
  0
LINE
  8
0
 10
-4.44786
 20
2.49818
 11
-4.47768
 21
2.51071
  0
LINE
  8
0
 10
-4.47768
 20
2.51071
 11
-4.49776
 21
2.53606
  0
LINE
  8
0
 10
-4.49776
 20
2.53606
 11
-4.50314
 21
2.56793
  0
LINE
  8
0
 10
-4.50314
 20
2.56793
 11
-4.49251
 21
2.59846
  0
LINE
  8
0
 10
-4.49251
 20
2.59846
 11
-4.46849
 21
2.6201
  0
LINE
  8
0
 10
-4.46849
 20
2.6201
 11
-4.43701
 21
2.62747
  0
LINE
  8
0
 10
-4.43701
 20
2.62747
 11
-4.40587
 21
2.61879
  0
LINE
  8
0
 10
-4.40587
 20
2.61879
 11
-4.38277
 21
2.59616
  0
LINE
  8
0
 10
-4.38277
 20
2.59616
 11
-4.37343
 21
2.56522
  0
LINE
  8
0
 10
-4.37343
 20
2.56522
 11
-4.38016
 21
2.53358
  0
LINE
  8
0
 10
-4.38016
 20
2.53358
 11
-4.40128
 21
2.50912
  0
LINE
  8
0
 10
-4.40128
 20
2.50912
 11
-4.41571
 21
2.50157
  0
LINE
  8
0
 10
-3.11148
 20
0.915771
 11
-2.37244
 21
1.49416
  0
LINE
  8
0
 10
-2.37244
 20
1.49416
 11
2.19035
 21
1.52628
  0
LINE
  8
0
 10
2.19035
 20
1.52628
 11
-3.12219
 21
-1.74049
  0
LINE
  8
0
 10
-3.12219
 20
-1.74049
 11
-3.11148
 21
0.915771
  0
LINE
  8
0
 10
2.86513
 20
1.03358
 11
2.86513
 21
-1.47273
  0
LINE
  8
0
 10
2.86513
 20
-1.47273
 11
2.27605
 21
-2.1368
  0
LINE
  8
0
 10
2.27605
 20
-2.1368
 11
-2.56523
 21
-2.24391
  0
LINE
  8
0
 10
-2.56523
 20
-2.24391
 11
2.86513
 21
1.03358
  0
LINE
  8
0
 10
-5.02237
 20
0.829849
 11
-5.05438
 21
0.825348
  0
LINE
  8
0
 10
-5.05438
 20
0.825348
 11
-5.08459
 21
0.836823
  0
LINE
  8
0
 10
-5.08459
 20
0.836823
 11
-5.10556
 21
0.86145
  0
LINE
  8
0
 10
-5.10556
 20
0.86145
 11
-5.11206
 21
0.893112
  0
LINE
  8
0
 10
-5.11206
 20
0.893112
 11
-5.10249
 21
0.923996
  0
LINE
  8
0
 10
-5.10249
 20
0.923996
 11
-5.07924
 21
0.946457
  0
LINE
  8
0
 10
-5.07924
 20
0.946457
 11
-5.04803
 21
0.954926
  0
LINE
  8
0
 10
-5.04803
 20
0.954926
 11
-5.01662
 21
0.947327
  0
LINE
  8
0
 10
-5.01662
 20
0.947327
 11
-4.99274
 21
0.925537
  0
LINE
  8
0
 10
-4.99274
 20
0.925537
 11
-4.98233
 21
0.894928
  0
LINE
  8
0
 10
-4.98233
 20
0.894928
 11
-4.98793
 21
0.863083
  0
LINE
  8
0
 10
-4.98793
 20
0.863083
 11
-5.00819
 21
0.837891
  0
LINE
  8
0
 10
-5.00819
 20
0.837891
 11
-5.02237
 21
0.829849
  0
LINE
  8
0
 10
4.5
 20
-0.40625
 11
4.44908
 21
-0.403046
  0
LINE
  8
0
 10
4.44908
 20
-0.403046
 11
4.39896
 21
-0.393478
  0
LINE
  8
0
 10
4.39896
 20
-0.393478
 11
4.35045
 21
-0.377716
  0
LINE
  8
0
 10
4.35045
 20
-0.377716
 11
4.30428
 21
-0.355988
  0
LINE
  8
0
 10
4.30428
 20
-0.355988
 11
4.2612
 21
-0.328659
  0
LINE
  8
0
 10
4.2612
 20
-0.328659
 11
4.22189
 21
-0.296143
  0
LINE
  8
0
 10
4.22189
 20
-0.296143
 11
4.18697
 21
-0.258942
  0
LINE
  8
0
 10
4.18697
 20
-0.258942
 11
4.15698
 21
-0.217667
  0
LINE
  8
0
 10
4.15698
 20
-0.217667
 11
4.1324
 21
-0.172958
  0
LINE
  8
0
 10
4.1324
 20
-0.172958
 11
4.11363
 21
-0.125534
  0
LINE
  8
0
 10
4.11363
 20
-0.125534
 11
4.10094
 21
-0.0761108
  0
LINE
  8
0
 10
4.10094
 20
-0.0761108
 11
4.09454
 21
-0.0254974
  0
LINE
  8
0
 10
4.09454
 20
-0.0254974
 11
4.09454
 21
0.0254974
  0
LINE
  8
0
 10
4.09454
 20
0.0254974
 11
4.10094
 21
0.0761108
  0
LINE
  8
0
 10
4.10094
 20
0.0761108
 11
4.11363
 21
0.125534
  0
LINE
  8
0
 10
4.11363
 20
0.125534
 11
4.1324
 21
0.172958
  0
LINE
  8
0
 10
4.1324
 20
0.172958
 11
4.15698
 21
0.217667
  0
LINE
  8
0
 10
4.15698
 20
0.217667
 11
4.18697
 21
0.258942
  0
LINE
  8
0
 10
4.18697
 20
0.258942
 11
4.22189
 21
0.296143
  0
LINE
  8
0
 10
4.22189
 20
0.296143
 11
4.2612
 21
0.328659
  0
LINE
  8
0
 10
4.2612
 20
0.328659
 11
4.30428
 21
0.355988
  0
LINE
  8
0
 10
4.30428
 20
0.355988
 11
4.35045
 21
0.377716
  0
LINE
  8
0
 10
4.35045
 20
0.377716
 11
4.39896
 21
0.393478
  0
LINE
  8
0
 10
4.39896
 20
0.393478
 11
4.44908
 21
0.403046
  0
LINE
  8
0
 10
4.44908
 20
0.403046
 11
4.5
 21
0.40625
  0
LINE
  8
0
 10
4.5
 20
0.40625
 11
4.5509
 21
0.403046
  0
LINE
  8
0
 10
4.5509
 20
0.403046
 11
4.60103
 21
0.393478
  0
LINE
  8
0
 10
4.60103
 20
0.393478
 11
4.64954
 21
0.377716
  0
LINE
  8
0
 10
4.64954
 20
0.377716
 11
4.69571
 21
0.355988
  0
LINE
  8
0
 10
4.69571
 20
0.355988
 11
4.73878
 21
0.328659
  0
LINE
  8
0
 10
4.73878
 20
0.328659
 11
4.77809
 21
0.296143
  0
LINE
  8
0
 10
4.77809
 20
0.296143
 11
4.81302
 21
0.258942
  0
LINE
  8
0
 10
4.81302
 20
0.258942
 11
4.843
 21
0.217667
  0
LINE
  8
0
 10
4.843
 20
0.217667
 11
4.86758
 21
0.172958
  0
LINE
  8
0
 10
4.86758
 20
0.172958
 11
4.88635
 21
0.125534
  0
LINE
  8
0
 10
4.88635
 20
0.125534
 11
4.89905
 21
0.0761108
  0
LINE
  8
0
 10
4.89905
 20
0.0761108
 11
4.90544
 21
0.0254974
  0
LINE
  8
0
 10
4.90544
 20
0.0254974
 11
4.90544
 21
-0.0254974
  0
LINE
  8
0
 10
4.90544
 20
-0.0254974
 11
4.89905
 21
-0.0761108
  0
LINE
  8
0
 10
4.89905
 20
-0.0761108
 11
4.88635
 21
-0.125534
  0
LINE
  8
0
 10
4.88635
 20
-0.125534
 11
4.86758
 21
-0.172958
  0
LINE
  8
0
 10
4.86758
 20
-0.172958
 11
4.843
 21
-0.217667
  0
LINE
  8
0
 10
4.843
 20
-0.217667
 11
4.81302
 21
-0.258942
  0
LINE
  8
0
 10
4.81302
 20
-0.258942
 11
4.77809
 21
-0.296143
  0
LINE
  8
0
 10
4.77809
 20
-0.296143
 11
4.73878
 21
-0.328659
  0
LINE
  8
0
 10
4.73878
 20
-0.328659
 11
4.69571
 21
-0.355988
  0
LINE
  8
0
 10
4.69571
 20
-0.355988
 11
4.64954
 21
-0.377716
  0
LINE
  8
0
 10
4.64954
 20
-0.377716
 11
4.60103
 21
-0.393478
  0
LINE
  8
0
 10
4.60103
 20
-0.393478
 11
4.5509
 21
-0.403046
  0
LINE
  8
0
 10
4.5509
 20
-0.403046
 11
4.5
 21
-0.40625
  0
LINE
  8
0
 10
-5.02405
 20
-0.950699
 11
-5.05618
 21
-0.9543
  0
LINE
  8
0
 10
-5.05618
 20
-0.9543
 11
-5.08607
 21
-0.941986
  0
LINE
  8
0
 10
-5.08607
 20
-0.941986
 11
-5.10632
 21
-0.916794
  0
LINE
  8
0
 10
-5.10632
 20
-0.916794
 11
-5.11194
 21
-0.884949
  0
LINE
  8
0
 10
-5.11194
 20
-0.884949
 11
-5.10152
 21
-0.854355
  0
LINE
  8
0
 10
-5.10152
 20
-0.854355
 11
-5.07765
 21
-0.83255
  0
LINE
  8
0
 10
-5.07765
 20
-0.83255
 11
-5.04622
 21
-0.824951
  0
LINE
  8
0
 10
-5.04622
 20
-0.824951
 11
-5.01503
 21
-0.83342
  0
LINE
  8
0
 10
-5.01503
 20
-0.83342
 11
-4.99178
 21
-0.855881
  0
LINE
  8
0
 10
-4.99178
 20
-0.855881
 11
-4.98221
 21
-0.886765
  0
LINE
  8
0
 10
-4.98221
 20
-0.886765
 11
-4.98871
 21
-0.918427
  0
LINE
  8
0
 10
-4.98871
 20
-0.918427
 11
-5.00966
 21
-0.943054
  0
LINE
  8
0
 10
-5.00966
 20
-0.943054
 11
-5.02405
 21
-0.950699
  0
LINE
  8
0
 10
-4.41318
 20
-2.62241
 11
-4.44516
 21
-2.62714
  0
LINE
  8
0
 10
-4.44516
 20
-2.62714
 11
-4.47546
 21
-2.61586
  0
LINE
  8
0
 10
-4.47546
 20
-2.61586
 11
-4.4966
 21
-2.5914
  0
LINE
  8
0
 10
-4.4966
 20
-2.5914
 11
-4.50331
 21
-2.55977
  0
LINE
  8
0
 10
-4.50331
 20
-2.55977
 11
-4.49397
 21
-2.52882
  0
LINE
  8
0
 10
-4.49397
 20
-2.52882
 11
-4.47087
 21
-2.5062
  0
LINE
  8
0
 10
-4.47087
 20
-2.5062
 11
-4.43973
 21
-2.49751
  0
LINE
  8
0
 10
-4.43973
 20
-2.49751
 11
-4.40826
 21
-2.50488
  0
LINE
  8
0
 10
-4.40826
 20
-2.50488
 11
-4.38423
 21
-2.52652
  0
LINE
  8
0
 10
-4.38423
 20
-2.52652
 11
-4.3736
 21
-2.55705
  0
LINE
  8
0
 10
-4.3736
 20
-2.55705
 11
-4.379
 21
-2.58893
  0
LINE
  8
0
 10
-4.379
 20
-2.58893
 11
-4.39908
 21
-2.61427
  0
LINE
  8
0
 10
-4.39908
 20
-2.61427
 11
-4.41318
 21
-2.62241
  0
LINE
  8
0
 10
4.46103
 20
-2.62341
 11
4.42888
 21
-2.6268
  0
LINE
  8
0
 10
4.42888
 20
-2.6268
 11
4.39908
 21
-2.61427
  0
LINE
  8
0
 10
4.39908
 20
-2.61427
 11
4.379
 21
-2.58893
  0
LINE
  8
0
 10
4.379
 20
-2.58893
 11
4.3736
 21
-2.55705
  0
LINE
  8
0
 10
4.3736
 20
-2.55705
 11
4.38423
 21
-2.52652
  0
LINE
  8
0
 10
4.38423
 20
-2.52652
 11
4.40826
 21
-2.50488
  0
LINE
  8
0
 10
4.40826
 20
-2.50488
 11
4.43973
 21
-2.49751
  0
LINE
  8
0
 10
4.43973
 20
-2.49751
 11
4.47087
 21
-2.5062
  0
LINE
  8
0
 10
4.47087
 20
-2.5062
 11
4.49397
 21
-2.52882
  0
LINE
  8
0
 10
4.49397
 20
-2.52882
 11
4.50331
 21
-2.55977
  0
LINE
  8
0
 10
4.50331
 20
-2.55977
 11
4.4966
 21
-2.5914
  0
LINE
  8
0
 10
4.4966
 20
-2.5914
 11
4.47546
 21
-2.61586
  0
LINE
  8
0
 10
4.47546
 20
-2.61586
 11
4.46103
 21
-2.62341
  0
LINE
  8
0
 10
-3.12219
 20
-3.04721
 11
3.86124
 21
-2.91869
  0
LINE
  8
0
 10
3.86124
 20
-2.91869
 11
3.51849
 21
-3.41139
  0
LINE
  8
0
 10
3.51849
 20
-3.41139
 11
-0.423065
 21
-4.19327
  0
LINE
  8
0
 10
-0.423065
 20
-4.19327
 11
-3.12219
 21
-3.04721
  0
LINE
  8
0
 10
-2.2585
 20
-4.30327
 11
-2.30934
 21
-4.299
  0
LINE
  8
0
 10
-2.30934
 20
-4.299
 11
-2.35924
 21
-4.28839
  0
LINE
  8
0
 10
-2.35924
 20
-4.28839
 11
-2.40742
 21
-4.27161
  0
LINE
  8
0
 10
-2.40742
 20
-4.27161
 11
-2.45312
 21
-4.24893
  0
LINE
  8
0
 10
-2.45312
 20
-4.24893
 11
-2.49561
 21
-4.2207
  0
LINE
  8
0
 10
-2.49561
 20
-4.2207
 11
-2.53423
 21
-4.18736
  0
LINE
  8
0
 10
-2.53423
 20
-4.18736
 11
-2.56837
 21
-4.14944
  0
LINE
  8
0
 10
-2.56837
 20
-4.14944
 11
-2.59749
 21
-4.10756
  0
LINE
  8
0
 10
-2.59749
 20
-4.10756
 11
-2.62112
 21
-4.06235
  0
LINE
  8
0
 10
-2.62112
 20
-4.06235
 11
-2.6389
 21
-4.01453
  0
LINE
  8
0
 10
-2.6389
 20
-4.01453
 11
-2.65056
 21
-3.96486
  0
LINE
  8
0
 10
-2.65056
 20
-3.96486
 11
-2.65588
 21
-3.91412
  0
LINE
  8
0
 10
-2.65588
 20
-3.91412
 11
-2.65482
 21
-3.86311
  0
LINE
  8
0
 10
-2.65482
 20
-3.86311
 11
-2.64737
 21
-3.81264
  0
LINE
  8
0
 10
-2.64737
 20
-3.81264
 11
-2.63365
 21
-3.7635
  0
LINE
  8
0
 10
-2.63365
 20
-3.7635
 11
-2.61388
 21
-3.71648
  0
LINE
  8
0
 10
-2.61388
 20
-3.71648
 11
-2.58836
 21
-3.67229
  0
LINE
  8
0
 10
-2.58836
 20
-3.67229
 11
-2.55753
 21
-3.63165
  0
LINE
  8
0
 10
-2.55753
 20
-3.63165
 11
-2.52182
 21
-3.5952
  0
LINE
  8
0
 10
-2.52182
 20
-3.5952
 11
-2.48184
 21
-3.56352
  0
LINE
  8
0
 10
-2.48184
 20
-3.56352
 11
-2.4382
 21
-3.53708
  0
LINE
  8
0
 10
-2.4382
 20
-3.53708
 11
-2.3916
 21
-3.51634
  0
LINE
  8
0
 10
-2.3916
 20
-3.51634
 11
-2.34276
 21
-3.50159
  0
LINE
  8
0
 10
-2.34276
 20
-3.50159
 11
-2.29245
 21
-3.49309
  0
LINE
  8
0
 10
-2.29245
 20
-3.49309
 11
-2.24149
 21
-3.49095
  0
LINE
  8
0
 10
-2.24149
 20
-3.49095
 11
-2.19064
 21
-3.49521
  0
LINE
  8
0
 10
-2.19064
 20
-3.49521
 11
-2.14075
 21
-3.50583
  0
LINE
  8
0
 10
-2.14075
 20
-3.50583
 11
-2.09256
 21
-3.5226
  0
LINE
  8
0
 10
-2.09256
 20
-3.5226
 11
-2.04688
 21
-3.54529
  0
LINE
  8
0
 10
-2.04688
 20
-3.54529
 11
-2.00438
 21
-3.57352
  0
LINE
  8
0
 10
-2.00438
 20
-3.57352
 11
-1.96576
 21
-3.60686
  0
LINE
  8
0
 10
-1.96576
 20
-3.60686
 11
-1.93161
 21
-3.64476
  0
LINE
  8
0
 10
-1.93161
 20
-3.64476
 11
-1.9025
 21
-3.68666
  0
LINE
  8
0
 10
-1.9025
 20
-3.68666
 11
-1.87886
 21
-3.73187
  0
LINE
  8
0
 10
-1.87886
 20
-3.73187
 11
-1.86108
 21
-3.77969
  0
LINE
  8
0
 10
-1.86108
 20
-3.77969
 11
-1.84943
 21
-3.82936
  0
LINE
  8
0
 10
-1.84943
 20
-3.82936
 11
-1.8441
 21
-3.8801
  0
LINE
  8
0
 10
-1.8441
 20
-3.8801
 11
-1.84517
 21
-3.93111
  0
LINE
  8
0
 10
-1.84517
 20
-3.93111
 11
-1.85262
 21
-3.98157
  0
LINE
  8
0
 10
-1.85262
 20
-3.98157
 11
-1.86633
 21
-4.03072
  0
LINE
  8
0
 10
-1.86633
 20
-4.03072
 11
-1.88611
 21
-4.07774
  0
LINE
  8
0
 10
-1.88611
 20
-4.07774
 11
-1.91162
 21
-4.12192
  0
LINE
  8
0
 10
-1.91162
 20
-4.12192
 11
-1.94246
 21
-4.16255
  0
LINE
  8
0
 10
-1.94246
 20
-4.16255
 11
-1.97816
 21
-4.19901
  0
LINE
  8
0
 10
-1.97816
 20
-4.19901
 11
-2.01814
 21
-4.2307
  0
LINE
  8
0
 10
-2.01814
 20
-4.2307
 11
-2.06178
 21
-4.25713
  0
LINE
  8
0
 10
-2.06178
 20
-4.25713
 11
-2.10838
 21
-4.27788
  0
LINE
  8
0
 10
-2.10838
 20
-4.27788
 11
-2.15723
 21
-4.29262
  0
LINE
  8
0
 10
-2.15723
 20
-4.29262
 11
-2.20753
 21
-4.30113
  0
LINE
  8
0
 10
-2.20753
 20
-4.30113
 11
-2.2585
 21
-4.30327
  0
LINE
  8
0
 10
-3.27077
 20
-3.98657
 11
-3.30287
 21
-3.9904
  0
LINE
  8
0
 10
-3.30287
 20
-3.9904
 11
-3.33286
 21
-3.97829
  0
LINE
  8
0
 10
-3.33286
 20
-3.97829
 11
-3.35329
 21
-3.95323
  0
LINE
  8
0
 10
-3.35329
 20
-3.95323
 11
-3.35912
 21
-3.92143
  0
LINE
  8
0
 10
-3.35912
 20
-3.92143
 11
-3.34892
 21
-3.89076
  0
LINE
  8
0
 10
-3.34892
 20
-3.89076
 11
-3.3252
 21
-3.86879
  0
LINE
  8
0
 10
-3.3252
 20
-3.86879
 11
-3.29382
 21
-3.86098
  0
LINE
  8
0
 10
-3.29382
 20
-3.86098
 11
-3.26257
 21
-3.86923
  0
LINE
  8
0
 10
-3.26257
 20
-3.86923
 11
-3.23915
 21
-3.89153
  0
LINE
  8
0
 10
-3.23915
 20
-3.89153
 11
-3.22939
 21
-3.92235
  0
LINE
  8
0
 10
-3.22939
 20
-3.92235
 11
-3.23566
 21
-3.95406
  0
LINE
  8
0
 10
-3.23566
 20
-3.95406
 11
-3.25644
 21
-3.97882
  0
LINE
  8
0
 10
-3.25644
 20
-3.97882
 11
-3.27077
 21
-3.98657
  0
LINE
  8
0
 10
3.31863
 20
-3.98624
 11
3.28658
 21
-3.99051
  0
LINE
  8
0
 10
3.28658
 20
-3.99051
 11
3.25644
 21
-3.97882
  0
LINE
  8
0
 10
3.25644
 20
-3.97882
 11
3.23566
 21
-3.95406
  0
LINE
  8
0
 10
3.23566
 20
-3.95406
 11
3.22939
 21
-3.92235
  0
LINE
  8
0
 10
3.22939
 20
-3.92235
 11
3.23915
 21
-3.89153
  0
LINE
  8
0
 10
3.23915
 20
-3.89153
 11
3.26257
 21
-3.86923
  0
LINE
  8
0
 10
3.26257
 20
-3.86923
 11
3.29382
 21
-3.86098
  0
LINE
  8
0
 10
3.29382
 20
-3.86098
 11
3.3252
 21
-3.86879
  0
LINE
  8
0
 10
3.3252
 20
-3.86879
 11
3.34892
 21
-3.89076
  0
LINE
  8
0
 10
3.34892
 20
-3.89076
 11
3.35912
 21
-3.92143
  0
LINE
  8
0
 10
3.35912
 20
-3.92143
 11
3.35329
 21
-3.95323
  0
LINE
  8
0
 10
3.35329
 20
-3.95323
 11
3.33286
 21
-3.97829
  0
LINE
  8
0
 10
3.33286
 20
-3.97829
 11
3.31863
 21
-3.98624
  0
LINE
  8
0
 10
-1.72723
 20
-4.87566
 11
-1.75919
 21
-4.8806
  0
LINE
  8
0
 10
-1.75919
 20
-4.8806
 11
-1.78957
 21
-4.86955
  0
LINE
  8
0
 10
-1.78957
 20
-4.86955
 11
-1.81087
 21
-4.84523
  0
LINE
  8
0
 10
-1.81087
 20
-4.84523
 11
-1.81781
 21
-4.81364
  0
LINE
  8
0
 10
-1.81781
 20
-4.81364
 11
-1.80869
 21
-4.78264
  0
LINE
  8
0
 10
-1.80869
 20
-4.78264
 11
-1.78574
 21
-4.75986
  0
LINE
  8
0
 10
-1.78574
 20
-4.75986
 11
-1.75465
 21
-4.75095
  0
LINE
  8
0
 10
-1.75465
 20
-4.75095
 11
-1.72313
 21
-4.7581
  0
LINE
  8
0
 10
-1.72313
 20
-4.7581
 11
-1.69896
 21
-4.77957
  0
LINE
  8
0
 10
-1.69896
 20
-4.77957
 11
-1.68811
 21
-4.81003
  0
LINE
  8
0
 10
-1.68811
 20
-4.81003
 11
-1.69328
 21
-4.84193
  0
LINE
  8
0
 10
-1.69328
 20
-4.84193
 11
-1.71318
 21
-4.86742
  0
LINE
  8
0
 10
-1.71318
 20
-4.86742
 11
-1.72723
 21
-4.87566
  0
ENDSEC
  0
SECTION
  2
OBJECTS
  0
DICTIONARY
  0
ENDSEC
  0
EOF
