solid OpenSCAD_Model
  facet normal 0 -1 0
    outer loop
      vertex -13.802 -17.662 39.9263
      vertex -13.802 -17.662 0
      vertex 13.802 -17.662 0
    endloop
  endfacet
  facet normal 0 -1 0
    outer loop
      vertex 13.802 -17.662 39.9263
      vertex -13.802 -17.662 39.9263
      vertex 13.802 -17.662 0
    endloop
  endfacet
  facet normal 0 0 -1
    outer loop
      vertex 12.802 -16.662 0
      vertex 13.802 -17.662 0
      vertex -12.802 -16.662 0
    endloop
  endfacet
  facet normal 0 0 -1
    outer loop
      vertex -13.802 -17.662 0
      vertex -13.802 -7.62 0
      vertex -12.802 -16.662 0
    endloop
  endfacet
  facet normal 0 0 -1
    outer loop
      vertex -13.802 -17.662 0
      vertex -12.802 -16.662 0
      vertex 13.802 -17.662 0
    endloop
  endfacet
  facet normal 0 0 -1
    outer loop
      vertex 13.802 -17.662 0
      vertex 12.802 -16.662 0
      vertex 12.802 -7.62 0
    endloop
  endfacet
  facet normal 0 0 -1
    outer loop
      vertex 13.802 -17.662 0
      vertex 12.802 -7.62 0
      vertex 13.802 -7.62 0
    endloop
  endfacet
  facet normal 0 0 -1
    outer loop
      vertex -12.802 -16.662 0
      vertex -13.802 -7.62 0
      vertex -12.802 -7.62 0
    endloop
  endfacet
  facet normal -1 0 0
    outer loop
      vertex -13.802 -17.662 0
      vertex -13.802 -17.662 39.9263
      vertex -13.802 -7.62 0
    endloop
  endfacet
  facet normal -1 0 0
    outer loop
      vertex -13.802 7.62 26.6175
      vertex -13.802 -17.662 39.9263
      vertex -13.802 17.662 39.9263
    endloop
  endfacet
  facet normal -1 0 0
    outer loop
      vertex -13.802 7.62 0
      vertex -13.802 17.662 39.9263
      vertex -13.802 17.662 0
    endloop
  endfacet
  facet normal -1 0 0
    outer loop
      vertex -13.802 -7.62 26.6175
      vertex -13.802 -17.662 39.9263
      vertex -13.802 7.62 26.6175
    endloop
  endfacet
  facet normal -1 0 0
    outer loop
      vertex -13.802 -7.62 0
      vertex -13.802 -17.662 39.9263
      vertex -13.802 -7.62 26.6175
    endloop
  endfacet
  facet normal -1 0 0
    outer loop
      vertex -13.802 7.62 26.6175
      vertex -13.802 17.662 39.9263
      vertex -13.802 7.62 0
    endloop
  endfacet
  facet normal 0 0 1
    outer loop
      vertex -12.802 -16.662 39.9263
      vertex -13.802 -17.662 39.9263
      vertex 13.802 -17.662 39.9263
    endloop
  endfacet
  facet normal 0 0 1
    outer loop
      vertex 12.802 -16.662 39.9263
      vertex -12.802 -16.662 39.9263
      vertex 13.802 -17.662 39.9263
    endloop
  endfacet
  facet normal 0 0 1
    outer loop
      vertex -13.802 17.662 39.9263
      vertex -13.802 -17.662 39.9263
      vertex -12.802 -16.662 39.9263
    endloop
  endfacet
  facet normal 0 0 1
    outer loop
      vertex 13.802 17.662 39.9263
      vertex -13.802 17.662 39.9263
      vertex -12.802 16.662 39.9263
    endloop
  endfacet
  facet normal 0 0 1
    outer loop
      vertex 13.802 17.662 39.9263
      vertex 12.802 16.662 39.9263
      vertex 13.802 -17.662 39.9263
    endloop
  endfacet
  facet normal 0 0 1
    outer loop
      vertex 13.802 17.662 39.9263
      vertex -12.802 16.662 39.9263
      vertex 12.802 16.662 39.9263
    endloop
  endfacet
  facet normal 0 0 1
    outer loop
      vertex 12.802 16.662 39.9263
      vertex 12.802 -16.662 39.9263
      vertex 13.802 -17.662 39.9263
    endloop
  endfacet
  facet normal 0 0 1
    outer loop
      vertex -12.802 -16.662 39.9263
      vertex -12.802 16.662 39.9263
      vertex -13.802 17.662 39.9263
    endloop
  endfacet
  facet normal 1 0 0
    outer loop
      vertex 13.802 -17.662 39.9263
      vertex 13.802 -17.662 0
      vertex 13.802 -7.62 0
    endloop
  endfacet
  facet normal 1 0 0
    outer loop
      vertex 13.802 7.62 26.6175
      vertex 13.802 -17.662 39.9263
      vertex 13.802 -7.62 26.6175
    endloop
  endfacet
  facet normal 1 0 0
    outer loop
      vertex 13.802 -7.62 26.6175
      vertex 13.802 -17.662 39.9263
      vertex 13.802 -7.62 0
    endloop
  endfacet
  facet normal 1 0 0
    outer loop
      vertex 13.802 17.662 39.9263
      vertex 13.802 -17.662 39.9263
      vertex 13.802 7.62 26.6175
    endloop
  endfacet
  facet normal 1 0 0
    outer loop
      vertex 13.802 17.662 0
      vertex 13.802 7.62 26.6175
      vertex 13.802 7.62 0
    endloop
  endfacet
  facet normal 1 0 0
    outer loop
      vertex 13.802 17.662 39.9263
      vertex 13.802 7.62 26.6175
      vertex 13.802 17.662 0
    endloop
  endfacet
  facet normal 0 1 0
    outer loop
      vertex 13.802 -7.62 26.6175
      vertex 13.802 -7.62 0
      vertex 12.802 -7.62 26.6175
    endloop
  endfacet
  facet normal 0 1 0
    outer loop
      vertex 12.802 -7.62 26.6175
      vertex 13.802 -7.62 0
      vertex 12.802 -7.62 0
    endloop
  endfacet
  facet normal -1 0 0
    outer loop
      vertex 12.802 -7.62 0
      vertex 12.802 -16.662 39.9263
      vertex 12.802 -7.62 26.6175
    endloop
  endfacet
  facet normal -1 0 0
    outer loop
      vertex 12.802 16.662 39.9263
      vertex 12.802 16.662 0
      vertex 12.802 7.62 26.6175
    endloop
  endfacet
  facet normal -1 0 0
    outer loop
      vertex 12.802 16.662 39.9263
      vertex 12.802 7.62 26.6175
      vertex 12.802 -16.662 39.9263
    endloop
  endfacet
  facet normal -1 0 0
    outer loop
      vertex 12.802 -16.662 39.9263
      vertex 12.802 -7.62 0
      vertex 12.802 -16.662 0
    endloop
  endfacet
  facet normal -1 0 0
    outer loop
      vertex 12.802 7.62 26.6175
      vertex 12.802 16.662 0
      vertex 12.802 7.62 0
    endloop
  endfacet
  facet normal -1 0 0
    outer loop
      vertex 12.802 -7.62 26.6175
      vertex 12.802 -16.662 39.9263
      vertex 12.802 7.62 26.6175
    endloop
  endfacet
  facet normal 0 1 0
    outer loop
      vertex 12.802 -16.662 39.9263
      vertex 12.802 -16.662 0
      vertex -12.802 -16.662 39.9263
    endloop
  endfacet
  facet normal 0 1 0
    outer loop
      vertex -12.802 -16.662 39.9263
      vertex 12.802 -16.662 0
      vertex -12.802 -16.662 0
    endloop
  endfacet
  facet normal 1 0 0
    outer loop
      vertex -12.802 16.662 39.9263
      vertex -12.802 -7.62 26.6175
      vertex -12.802 7.62 26.6175
    endloop
  endfacet
  facet normal 1 0 0
    outer loop
      vertex -12.802 -7.62 0
      vertex -12.802 -7.62 26.6175
      vertex -12.802 -16.662 39.9263
    endloop
  endfacet
  facet normal 1 0 0
    outer loop
      vertex -12.802 7.62 0
      vertex -12.802 16.662 0
      vertex -12.802 7.62 26.6175
    endloop
  endfacet
  facet normal 1 0 0
    outer loop
      vertex -12.802 16.662 0
      vertex -12.802 16.662 39.9263
      vertex -12.802 7.62 26.6175
    endloop
  endfacet
  facet normal 1 0 0
    outer loop
      vertex -12.802 16.662 39.9263
      vertex -12.802 -16.662 39.9263
      vertex -12.802 -7.62 26.6175
    endloop
  endfacet
  facet normal 1 0 0
    outer loop
      vertex -12.802 -16.662 39.9263
      vertex -12.802 -16.662 0
      vertex -12.802 -7.62 0
    endloop
  endfacet
  facet normal 0 1 0
    outer loop
      vertex -12.802 -7.62 26.6175
      vertex -12.802 -7.62 0
      vertex -13.802 -7.62 26.6175
    endloop
  endfacet
  facet normal 0 1 0
    outer loop
      vertex -13.802 -7.62 26.6175
      vertex -12.802 -7.62 0
      vertex -13.802 -7.62 0
    endloop
  endfacet
  facet normal 0 0 -1
    outer loop
      vertex -12.802 7.62 26.6175
      vertex -12.802 -7.62 26.6175
      vertex -13.802 7.62 26.6175
    endloop
  endfacet
  facet normal 0 0 -1
    outer loop
      vertex -13.802 7.62 26.6175
      vertex -12.802 -7.62 26.6175
      vertex -13.802 -7.62 26.6175
    endloop
  endfacet
  facet normal 0 -1 0
    outer loop
      vertex -12.802 7.62 0
      vertex -12.802 7.62 26.6175
      vertex -13.802 7.62 26.6175
    endloop
  endfacet
  facet normal 0 -1 0
    outer loop
      vertex -13.802 7.62 0
      vertex -12.802 7.62 0
      vertex -13.802 7.62 26.6175
    endloop
  endfacet
  facet normal 0 0 -1
    outer loop
      vertex -13.802 7.62 0
      vertex -13.802 17.662 0
      vertex -12.802 7.62 0
    endloop
  endfacet
  facet normal 0 0 -1
    outer loop
      vertex -12.802 16.662 0
      vertex -13.802 17.662 0
      vertex 13.802 17.662 0
    endloop
  endfacet
  facet normal 0 0 -1
    outer loop
      vertex 12.802 7.62 0
      vertex 13.802 17.662 0
      vertex 13.802 7.62 0
    endloop
  endfacet
  facet normal 0 0 -1
    outer loop
      vertex 12.802 16.662 0
      vertex 13.802 17.662 0
      vertex 12.802 7.62 0
    endloop
  endfacet
  facet normal 0 0 -1
    outer loop
      vertex -12.802 7.62 0
      vertex -13.802 17.662 0
      vertex -12.802 16.662 0
    endloop
  endfacet
  facet normal 0 0 -1
    outer loop
      vertex -12.802 16.662 0
      vertex 13.802 17.662 0
      vertex 12.802 16.662 0
    endloop
  endfacet
  facet normal 0 1 0
    outer loop
      vertex 0 17.662 34.3894
      vertex -13.802 17.662 39.9263
      vertex 13.802 17.662 39.9263
    endloop
  endfacet
  facet normal 0 1 0
    outer loop
      vertex -13.802 17.662 0
      vertex -13.802 17.662 39.9263
      vertex -5 17.662 24.3894
    endloop
  endfacet
  facet normal 0 1 0
    outer loop
      vertex -13.802 17.662 0
      vertex -5 17.662 24.3894
      vertex -4.33 17.662 19.3894
    endloop
  endfacet
  facet normal 0 1 0
    outer loop
      vertex -13.802 17.662 0
      vertex -4.33 17.662 19.3894
      vertex -2.5 17.662 15.7294
    endloop
  endfacet
  facet normal 0 1 0
    outer loop
      vertex -13.802 17.662 0
      vertex -2.5 17.662 15.7294
      vertex 13.802 17.662 0
    endloop
  endfacet
  facet normal 0 1 0
    outer loop
      vertex -2.5 17.662 15.7294
      vertex 0 17.662 14.3894
      vertex 13.802 17.662 0
    endloop
  endfacet
  facet normal 0 1 0
    outer loop
      vertex 2.5 17.662 15.7294
      vertex 13.802 17.662 0
      vertex 0 17.662 14.3894
    endloop
  endfacet
  facet normal 0 1 0
    outer loop
      vertex 4.33 17.662 19.3894
      vertex 13.802 17.662 0
      vertex 2.5 17.662 15.7294
    endloop
  endfacet
  facet normal 0 1 0
    outer loop
      vertex 13.802 17.662 0
      vertex 4.33 17.662 19.3894
      vertex 13.802 17.662 39.9263
    endloop
  endfacet
  facet normal 0 1 0
    outer loop
      vertex 4.33 17.662 19.3894
      vertex 5 17.662 24.3894
      vertex 13.802 17.662 39.9263
    endloop
  endfacet
  facet normal 0 1 0
    outer loop
      vertex -4.33 17.662 29.3894
      vertex -13.802 17.662 39.9263
      vertex -2.5 17.662 33.0494
    endloop
  endfacet
  facet normal 0 1 0
    outer loop
      vertex 5 17.662 24.3894
      vertex 4.33 17.662 29.3894
      vertex 13.802 17.662 39.9263
    endloop
  endfacet
  facet normal 0 1 0
    outer loop
      vertex 4.33 17.662 29.3894
      vertex 2.5 17.662 33.0494
      vertex 13.802 17.662 39.9263
    endloop
  endfacet
  facet normal 0 1 0
    outer loop
      vertex 2.5 17.662 33.0494
      vertex 0 17.662 34.3894
      vertex 13.802 17.662 39.9263
    endloop
  endfacet
  facet normal 0 1 0
    outer loop
      vertex -5 17.662 24.3894
      vertex -13.802 17.662 39.9263
      vertex -4.33 17.662 29.3894
    endloop
  endfacet
  facet normal 0 1 0
    outer loop
      vertex -2.5 17.662 33.0494
      vertex -13.802 17.662 39.9263
      vertex 0 17.662 34.3894
    endloop
  endfacet
  facet normal 0 -1 0
    outer loop
      vertex -2.5 16.662 31.3173
      vertex 12.802 16.662 39.9263
      vertex -12.802 16.662 39.9263
    endloop
  endfacet
  facet normal 0 -1 0
    outer loop
      vertex 0 16.662 32.6573
      vertex 2.5 16.662 31.3173
      vertex 12.802 16.662 39.9263
    endloop
  endfacet
  facet normal 0 -1 0
    outer loop
      vertex -12.802 16.662 0
      vertex -5 16.662 22.6573
      vertex -12.802 16.662 39.9263
    endloop
  endfacet
  facet normal 0 -1 0
    outer loop
      vertex -4.33 16.662 27.6573
      vertex -2.5 16.662 31.3173
      vertex -12.802 16.662 39.9263
    endloop
  endfacet
  facet normal 0 -1 0
    outer loop
      vertex 0 16.662 32.6573
      vertex 12.802 16.662 39.9263
      vertex -2.5 16.662 31.3173
    endloop
  endfacet
  facet normal 0 -1 0
    outer loop
      vertex 4.33 16.662 27.6573
      vertex 5 16.662 22.6573
      vertex 12.802 16.662 0
    endloop
  endfacet
  facet normal 0 -1 0
    outer loop
      vertex 4.33 16.662 27.6573
      vertex 12.802 16.662 39.9263
      vertex 2.5 16.662 31.3173
    endloop
  endfacet
  facet normal 0 -1 0
    outer loop
      vertex 4.33 16.662 17.6573
      vertex 2.5 16.662 13.9973
      vertex 12.802 16.662 0
    endloop
  endfacet
  facet normal 0 -1 0
    outer loop
      vertex 12.802 16.662 0
      vertex 12.802 16.662 39.9263
      vertex 4.33 16.662 27.6573
    endloop
  endfacet
  facet normal 0 -1 0
    outer loop
      vertex 2.5 16.662 13.9973
      vertex 0 16.662 12.6573
      vertex 12.802 16.662 0
    endloop
  endfacet
  facet normal 0 -1 0
    outer loop
      vertex 12.802 16.662 0
      vertex 5 16.662 22.6573
      vertex 4.33 16.662 17.6573
    endloop
  endfacet
  facet normal 0 -1 0
    outer loop
      vertex -12.802 16.662 0
      vertex 12.802 16.662 0
      vertex 0 16.662 12.6573
    endloop
  endfacet
  facet normal 0 -1 0
    outer loop
      vertex -12.802 16.662 0
      vertex 0 16.662 12.6573
      vertex -2.5 16.662 13.9973
    endloop
  endfacet
  facet normal 0 -1 0
    outer loop
      vertex -12.802 16.662 0
      vertex -4.33 16.662 17.6573
      vertex -5 16.662 22.6573
    endloop
  endfacet
  facet normal 0 -1 0
    outer loop
      vertex -12.802 16.662 0
      vertex -2.5 16.662 13.9973
      vertex -4.33 16.662 17.6573
    endloop
  endfacet
  facet normal 0 -1 0
    outer loop
      vertex -5 16.662 22.6573
      vertex -4.33 16.662 27.6573
      vertex -12.802 16.662 39.9263
    endloop
  endfacet
  facet normal 0 -1 0
    outer loop
      vertex 13.802 7.62 0
      vertex 13.802 7.62 26.6175
      vertex 12.802 7.62 26.6175
    endloop
  endfacet
  facet normal 0 -1 0
    outer loop
      vertex 12.802 7.62 0
      vertex 13.802 7.62 0
      vertex 12.802 7.62 26.6175
    endloop
  endfacet
  facet normal 0 0 -1
    outer loop
      vertex 13.802 7.62 26.6175
      vertex 13.802 -7.62 26.6175
      vertex 12.802 7.62 26.6175
    endloop
  endfacet
  facet normal 0 0 -1
    outer loop
      vertex 12.802 7.62 26.6175
      vertex 13.802 -7.62 26.6175
      vertex 12.802 -7.62 26.6175
    endloop
  endfacet
  facet normal 0.965914 0.224184 -0.129432
    outer loop
      vertex -5 17.662 24.3894
      vertex -4.33 17.662 29.3894
      vertex -4.33 16.662 27.6573
    endloop
  endfacet
  facet normal 0.965914 0.224184 -0.129432
    outer loop
      vertex -5 16.662 22.6573
      vertex -5 17.662 24.3894
      vertex -4.33 16.662 27.6573
    endloop
  endfacet
  facet normal 0.965914 -0.224184 0.129432
    outer loop
      vertex -4.33 16.662 17.6573
      vertex -4.33 17.662 19.3894
      vertex -5 17.662 24.3894
    endloop
  endfacet
  facet normal 0.965914 -0.224184 0.129432
    outer loop
      vertex -5 16.662 22.6573
      vertex -4.33 16.662 17.6573
      vertex -5 17.662 24.3894
    endloop
  endfacet
  facet normal 0.707107 0.612372 -0.353553
    outer loop
      vertex -4.33 17.662 29.3894
      vertex -2.5 17.662 33.0494
      vertex -2.5 16.662 31.3173
    endloop
  endfacet
  facet normal 0.707107 0.612372 -0.353553
    outer loop
      vertex -4.33 16.662 27.6573
      vertex -4.33 17.662 29.3894
      vertex -2.5 16.662 31.3173
    endloop
  endfacet
  facet normal 0.258865 0.836506 -0.482957
    outer loop
      vertex 0 17.662 34.3894
      vertex 0 16.662 32.6573
      vertex -2.5 17.662 33.0494
    endloop
  endfacet
  facet normal 0.258865 0.836506 -0.482957
    outer loop
      vertex -2.5 17.662 33.0494
      vertex 0 16.662 32.6573
      vertex -2.5 16.662 31.3173
    endloop
  endfacet
  facet normal -0.258865 0.836506 -0.482957
    outer loop
      vertex 2.5 17.662 33.0494
      vertex 2.5 16.662 31.3173
      vertex 0 17.662 34.3894
    endloop
  endfacet
  facet normal -0.258865 0.836506 -0.482957
    outer loop
      vertex 0 17.662 34.3894
      vertex 2.5 16.662 31.3173
      vertex 0 16.662 32.6573
    endloop
  endfacet
  facet normal -0.707107 0.612372 -0.353553
    outer loop
      vertex 4.33 17.662 29.3894
      vertex 4.33 16.662 27.6573
      vertex 2.5 17.662 33.0494
    endloop
  endfacet
  facet normal -0.707107 0.612372 -0.353553
    outer loop
      vertex 2.5 17.662 33.0494
      vertex 4.33 16.662 27.6573
      vertex 2.5 16.662 31.3173
    endloop
  endfacet
  facet normal -0.965914 0.224184 -0.129432
    outer loop
      vertex 5 17.662 24.3894
      vertex 5 16.662 22.6573
      vertex 4.33 17.662 29.3894
    endloop
  endfacet
  facet normal -0.965914 0.224184 -0.129432
    outer loop
      vertex 4.33 17.662 29.3894
      vertex 5 16.662 22.6573
      vertex 4.33 16.662 27.6573
    endloop
  endfacet
  facet normal -0.965914 -0.224184 0.129432
    outer loop
      vertex 5 17.662 24.3894
      vertex 4.33 17.662 19.3894
      vertex 5 16.662 22.6573
    endloop
  endfacet
  facet normal -0.965914 -0.224184 0.129432
    outer loop
      vertex 5 16.662 22.6573
      vertex 4.33 17.662 19.3894
      vertex 4.33 16.662 17.6573
    endloop
  endfacet
  facet normal -0.707107 -0.612372 0.353553
    outer loop
      vertex 4.33 17.662 19.3894
      vertex 2.5 17.662 15.7294
      vertex 4.33 16.662 17.6573
    endloop
  endfacet
  facet normal -0.707107 -0.612372 0.353553
    outer loop
      vertex 4.33 16.662 17.6573
      vertex 2.5 17.662 15.7294
      vertex 2.5 16.662 13.9973
    endloop
  endfacet
  facet normal -0.258865 -0.836506 0.482957
    outer loop
      vertex 2.5 16.662 13.9973
      vertex 2.5 17.662 15.7294
      vertex 0 17.662 14.3894
    endloop
  endfacet
  facet normal -0.258865 -0.836506 0.482957
    outer loop
      vertex 0 16.662 12.6573
      vertex 2.5 16.662 13.9973
      vertex 0 17.662 14.3894
    endloop
  endfacet
  facet normal 0.258865 -0.836506 0.482957
    outer loop
      vertex 0 16.662 12.6573
      vertex 0 17.662 14.3894
      vertex -2.5 17.662 15.7294
    endloop
  endfacet
  facet normal 0.258865 -0.836506 0.482957
    outer loop
      vertex -2.5 16.662 13.9973
      vertex 0 16.662 12.6573
      vertex -2.5 17.662 15.7294
    endloop
  endfacet
  facet normal 0.707107 -0.612372 0.353553
    outer loop
      vertex -2.5 16.662 13.9973
      vertex -2.5 17.662 15.7294
      vertex -4.33 17.662 19.3894
    endloop
  endfacet
  facet normal 0.707107 -0.612372 0.353553
    outer loop
      vertex -4.33 16.662 17.6573
      vertex -2.5 16.662 13.9973
      vertex -4.33 17.662 19.3894
    endloop
  endfacet
endsolid OpenSCAD_Model
