<?xml version="1.0" standalone="no"?>
<!DOCTYPE svg PUBLIC "-//W3C//DTD SVG 1.1//EN" "http://www.w3.org/Graphics/SVG/1.1/DTD/svg11.dtd">
<svg width="40" height="66" viewBox="-20 -46 40 66" xmlns="http://www.w3.org/2000/svg" version="1.1">
<title>OpenSCAD Model</title>
<path d="
M 19.05,-21.05 L 13.333,-21.05 L 13.333,-45.716 L -13.333,-45.716 L -13.333,-21.05 L -19.05,-21.05
 L -19.05,19.05 L 19.05,19.05 z
M -0.317566,-7.97798 L -0.625473,-8.06049 L -0.914398,-8.19521 L -1.17552,-8.37805 L -1.40094,-8.60347 L -1.58379,-8.86459
 L -1.71851,-9.1535 L -1.80101,-9.46143 L -1.8288,-9.77899 L -1.80101,-10.0966 L -1.71851,-10.4045 L -1.58379,-10.6934
 L -1.40094,-10.9545 L -1.17552,-11.1799 L -0.914398,-11.3628 L -0.625473,-11.4975 L -0.317566,-11.58 L 0,-11.6078
 L 0.317566,-11.58 L 0.625473,-11.4975 L 0.914398,-11.3628 L 1.17552,-11.1799 L 1.40094,-10.9545 L 1.58379,-10.6934
 L 1.71851,-10.4045 L 1.80101,-10.0966 L 1.8288,-9.77899 L 1.80101,-9.46143 L 1.71851,-9.1535 L 1.58379,-8.86459
 L 1.40094,-8.60347 L 1.17552,-8.37805 L 0.914398,-8.19521 L 0.625473,-8.06049 L 0.317566,-7.97798 L 0,-7.9502
 z
M 6.7554,-5.09296 L 6.44147,-5.1483 L 6.14191,-5.25734 L 5.86583,-5.41672 L 5.62163,-5.62163 L 5.41672,-5.86583
 L 5.25734,-6.14191 L 5.1483,-6.44147 L 5.09296,-6.7554 L 5.09296,-7.07417 L 5.1483,-7.38812 L 5.25734,-7.68767
 L 5.41672,-7.96375 L 5.62163,-8.20795 L 5.86583,-8.41286 L 6.14191,-8.57225 L 6.44147,-8.68127 L 6.7554,-8.73663
 L 7.07417,-8.73663 L 7.38812,-8.68127 L 7.68767,-8.57225 L 7.96375,-8.41286 L 8.20795,-8.20795 L 8.41286,-7.96375
 L 8.57225,-7.68767 L 8.68127,-7.38812 L 8.73663,-7.07417 L 8.73663,-6.7554 L 8.68127,-6.44147 L 8.57225,-6.14191
 L 8.41286,-5.86583 L 8.20795,-5.62163 L 7.96375,-5.41672 L 7.68767,-5.25734 L 7.38812,-5.1483 L 7.07417,-5.09296
 z
M -7.07417,-5.09296 L -7.38812,-5.1483 L -7.68767,-5.25734 L -7.96375,-5.41672 L -8.20795,-5.62163 L -8.41286,-5.86583
 L -8.57225,-6.14191 L -8.68127,-6.44147 L -8.73663,-6.7554 L -8.73663,-7.07417 L -8.68127,-7.38812 L -8.57225,-7.68767
 L -8.41286,-7.96375 L -8.20795,-8.20795 L -7.96375,-8.41286 L -7.68767,-8.57225 L -7.38812,-8.68127 L -7.07417,-8.73663
 L -6.7554,-8.73663 L -6.44147,-8.68127 L -6.14191,-8.57225 L -5.86583,-8.41286 L -5.62163,-8.20795 L -5.41672,-7.96375
 L -5.25734,-7.68767 L -5.1483,-7.38812 L -5.09296,-7.07417 L -5.09296,-6.7554 L -5.1483,-6.44147 L -5.25734,-6.14191
 L -5.41672,-5.86583 L -5.62163,-5.62163 L -5.86583,-5.41672 L -6.14191,-5.25734 L -6.44147,-5.1483 L -6.7554,-5.09296
 z
M -1.10266,6.25352 L -2.17181,5.96704 L -3.17499,5.49925 L -4.0817,4.86438 L -4.86438,4.0817 L -5.49925,3.17499
 L -5.96704,2.17181 L -6.25352,1.10266 L -6.34999,-0 L -6.25352,-1.10266 L -5.96704,-2.17181 L -5.49925,-3.17499
 L -4.86438,-4.0817 L -4.0817,-4.86438 L -3.17499,-5.49925 L -2.17181,-5.96704 L -1.10266,-6.25352 L 0,-6.34999
 L 1.10266,-6.25352 L 2.17181,-5.96704 L 3.17499,-5.49925 L 4.0817,-4.86438 L 4.86438,-4.0817 L 5.49925,-3.17499
 L 5.96704,-2.17181 L 6.25352,-1.10266 L 6.34999,-0 L 6.25352,1.10266 L 5.96704,2.17181 L 5.49925,3.17499
 L 4.86438,4.0817 L 4.0817,4.86438 L 3.17499,5.49925 L 2.17181,5.96704 L 1.10266,6.25352 L 0,6.34999
 z
M 9.46143,1.80101 L 9.1535,1.71851 L 8.86459,1.58379 L 8.60347,1.40094 L 8.37805,1.17552 L 8.19521,0.914398
 L 8.06049,0.625473 L 7.97798,0.317566 L 7.9502,-0 L 7.97798,-0.317566 L 8.06049,-0.625473 L 8.19521,-0.914398
 L 8.37805,-1.17552 L 8.60347,-1.40094 L 8.86459,-1.58379 L 9.1535,-1.71851 L 9.46143,-1.80101 L 9.77899,-1.8288
 L 10.0966,-1.80101 L 10.4045,-1.71851 L 10.6934,-1.58379 L 10.9545,-1.40094 L 11.1799,-1.17552 L 11.3628,-0.914398
 L 11.4975,-0.625473 L 11.58,-0.317566 L 11.6078,-0 L 11.58,0.317566 L 11.4975,0.625473 L 11.3628,0.914398
 L 11.1799,1.17552 L 10.9545,1.40094 L 10.6934,1.58379 L 10.4045,1.71851 L 10.0966,1.80101 L 9.77899,1.8288
 z
M -10.0966,1.80101 L -10.4045,1.71851 L -10.6934,1.58379 L -10.9545,1.40094 L -11.1799,1.17552 L -11.3628,0.914398
 L -11.4975,0.625473 L -11.58,0.317566 L -11.6078,-0 L -11.58,-0.317566 L -11.4975,-0.625473 L -11.3628,-0.914398
 L -11.1799,-1.17552 L -10.9545,-1.40094 L -10.6934,-1.58379 L -10.4045,-1.71851 L -10.0966,-1.80101 L -9.77899,-1.8288
 L -9.46143,-1.80101 L -9.1535,-1.71851 L -8.86459,-1.58379 L -8.60347,-1.40094 L -8.37805,-1.17552 L -8.19521,-0.914398
 L -8.06049,-0.625473 L -7.97798,-0.317566 L -7.9502,-0 L -7.97798,0.317566 L -8.06049,0.625473 L -8.19521,0.914398
 L -8.37805,1.17552 L -8.60347,1.40094 L -8.86459,1.58379 L -9.1535,1.71851 L -9.46143,1.80101 L -9.77899,1.8288
 z
M -7.07417,8.73663 L -7.38812,8.68127 L -7.68767,8.57225 L -7.96375,8.41286 L -8.20795,8.20795 L -8.41286,7.96375
 L -8.57225,7.68767 L -8.68127,7.38812 L -8.73663,7.07417 L -8.73663,6.7554 L -8.68127,6.44147 L -8.57225,6.14191
 L -8.41286,5.86583 L -8.20795,5.62163 L -7.96375,5.41672 L -7.68767,5.25734 L -7.38812,5.1483 L -7.07417,5.09296
 L -6.7554,5.09296 L -6.44147,5.1483 L -6.14191,5.25734 L -5.86583,5.41672 L -5.62163,5.62163 L -5.41672,5.86583
 L -5.25734,6.14191 L -5.1483,6.44147 L -5.09296,6.7554 L -5.09296,7.07417 L -5.1483,7.38812 L -5.25734,7.68767
 L -5.41672,7.96375 L -5.62163,8.20795 L -5.86583,8.41286 L -6.14191,8.57225 L -6.44147,8.68127 L -6.7554,8.73663
 z
M 6.7554,8.73663 L 6.44147,8.68127 L 6.14191,8.57225 L 5.86583,8.41286 L 5.62163,8.20795 L 5.41672,7.96375
 L 5.25734,7.68767 L 5.1483,7.38812 L 5.09296,7.07417 L 5.09296,6.7554 L 5.1483,6.44147 L 5.25734,6.14191
 L 5.41672,5.86583 L 5.62163,5.62163 L 5.86583,5.41672 L 6.14191,5.25734 L 6.44147,5.1483 L 6.7554,5.09296
 L 7.07417,5.09296 L 7.38812,5.1483 L 7.68767,5.25734 L 7.96375,5.41672 L 8.20795,5.62163 L 8.41286,5.86583
 L 8.57225,6.14191 L 8.68127,6.44147 L 8.73663,6.7554 L 8.73663,7.07417 L 8.68127,7.38812 L 8.57225,7.68767
 L 8.41286,7.96375 L 8.20795,8.20795 L 7.96375,8.41286 L 7.68767,8.57225 L 7.38812,8.68127 L 7.07417,8.73663
 z
M -0.317566,11.58 L -0.625473,11.4975 L -0.914398,11.3628 L -1.17552,11.1799 L -1.40094,10.9545 L -1.58379,10.6934
 L -1.71851,10.4045 L -1.80101,10.0966 L -1.8288,9.77899 L -1.80101,9.46143 L -1.71851,9.1535 L -1.58379,8.86459
 L -1.40094,8.60347 L -1.17552,8.37805 L -0.914398,8.19521 L -0.625473,8.06049 L -0.317566,7.97798 L 0,7.9502
 L 0.317566,7.97798 L 0.625473,8.06049 L 0.914398,8.19521 L 1.17552,8.37805 L 1.40094,8.60347 L 1.58379,8.86459
 L 1.71851,9.1535 L 1.80101,9.46143 L 1.8288,9.77899 L 1.80101,10.0966 L 1.71851,10.4045 L 1.58379,10.6934
 L 1.40094,10.9545 L 1.17552,11.1799 L 0.914398,11.3628 L 0.625473,11.4975 L 0.317566,11.58 L 0,11.6078
 z
" stroke="black" fill="lightgray" stroke-width="0.5"/></svg>
